<svg width="11" height="10" viewBox="0 0 11 10" fill="none" xmlns="http://www.w3.org/2000/svg">
<path d="M4.54 4.43C4.565 4.265 4.62 4.12 4.69 3.995C4.76 3.87 4.86 3.765 4.985 3.685C5.105 3.61 5.255 3.575 5.44 3.57C5.555 3.575 5.66 3.595 5.755 3.635C5.855 3.68 5.945 3.74 6.015 3.815C6.085 3.89 6.14 3.98 6.185 4.08C6.23 4.18 6.25 4.29 6.255 4.4H7.15C7.14 4.165 7.095 3.95 7.01 3.755C6.925 3.56 6.81 3.39 6.66 3.25C6.51 3.11 6.33 3 6.12 2.92C5.91 2.84 5.68 2.805 5.425 2.805C5.1 2.805 4.815 2.86 4.575 2.975C4.335 3.09 4.135 3.24 3.975 3.435C3.815 3.63 3.695 3.855 3.62 4.115C3.545 4.375 3.5 4.645 3.5 4.935V5.07C3.5 5.36 3.54 5.63 3.615 5.89C3.69 6.15 3.81 6.375 3.97 6.565C4.13 6.755 4.33 6.91 4.57 7.02C4.81 7.13 5.095 7.19 5.42 7.19C5.655 7.19 5.875 7.15 6.08 7.075C6.285 7 6.465 6.895 6.62 6.76C6.775 6.625 6.9 6.47 6.99 6.29C7.08 6.11 7.135 5.92 7.14 5.715H6.245C6.24 5.82 6.215 5.915 6.17 6.005C6.125 6.095 6.065 6.17 5.99 6.235C5.915 6.3 5.83 6.35 5.73 6.385C5.635 6.42 5.535 6.43 5.43 6.435C5.25 6.43 5.1 6.395 4.985 6.32C4.86 6.24 4.76 6.135 4.69 6.01C4.62 5.885 4.565 5.735 4.54 5.57C4.515 5.405 4.5 5.235 4.5 5.07V4.935C4.5 4.76 4.515 4.595 4.54 4.43ZM5.5 0C2.74 0 0.5 2.24 0.5 5C0.5 7.76 2.74 10 5.5 10C8.26 10 10.5 7.76 10.5 5C10.5 2.24 8.26 0 5.5 0ZM5.5 9C3.295 9 1.5 7.205 1.5 5C1.5 2.795 3.295 1 5.5 1C7.705 1 9.5 2.795 9.5 5C9.5 7.205 7.705 9 5.5 9Z" fill="#5F7299"/>
</svg>
