<svg width="86" height="16" viewBox="0 0 86 16" fill="none" xmlns="http://www.w3.org/2000/svg">
<g clip-path="url(#clip0_0_459)">
<path d="M25.5 11.8182L28.92 13.9213C29.0087 13.9752 29.1114 14.0015 29.2151 13.997C29.3188 13.9925 29.4189 13.9574 29.5026 13.8961C29.5864 13.8347 29.6501 13.7499 29.6856 13.6524C29.7212 13.5549 29.7271 13.449 29.7025 13.3482L28.7725 9.42379L31.8162 6.79879C31.8938 6.73064 31.9498 6.64127 31.9772 6.54169C32.0046 6.44211 32.0022 6.33669 31.9704 6.23845C31.9385 6.14021 31.8786 6.05344 31.798 5.98885C31.7174 5.92427 31.6197 5.8847 31.5169 5.87504L27.5225 5.55004L25.9837 1.82504C25.9445 1.72893 25.8775 1.6467 25.7914 1.58881C25.7052 1.53092 25.6038 1.5 25.5 1.5C25.3962 1.5 25.2947 1.53092 25.2086 1.58881C25.1224 1.6467 25.0555 1.72893 25.0162 1.82504L23.4775 5.55004L19.4831 5.87504C19.3796 5.88413 19.281 5.92352 19.1998 5.98829C19.1185 6.05307 19.0581 6.14035 19.0262 6.23924C18.9943 6.33813 18.9922 6.44424 19.0202 6.54431C19.0482 6.64439 19.1051 6.73398 19.1837 6.80191L22.2275 9.42691L21.2975 13.3482C21.2729 13.449 21.2788 13.5549 21.3143 13.6524C21.3499 13.7499 21.4136 13.8347 21.4973 13.8961C21.5811 13.9574 21.6811 13.9925 21.7848 13.997C21.8885 14.0015 21.9913 13.9752 22.08 13.9213L25.5 11.8182Z" fill="#E0912F" stroke="#E0912F" stroke-linecap="round" stroke-linejoin="round"/>
</g>
<g clip-path="url(#clip1_0_459)">
<path d="M60.5 11.8182L63.92 13.9213C64.0087 13.9752 64.1114 14.0015 64.2151 13.997C64.3188 13.9925 64.4189 13.9574 64.5026 13.8961C64.5864 13.8347 64.6501 13.7499 64.6856 13.6524C64.7212 13.5549 64.7271 13.449 64.7025 13.3482L63.7725 9.42379L66.8162 6.79879C66.8938 6.73064 66.9498 6.64127 66.9772 6.54169C67.0046 6.44211 67.0022 6.33669 66.9704 6.23845C66.9385 6.14021 66.8786 6.05344 66.798 5.98885C66.7174 5.92427 66.6197 5.8847 66.5169 5.87504L62.5225 5.55004L60.9837 1.82504C60.9445 1.72893 60.8775 1.6467 60.7914 1.58881C60.7052 1.53092 60.6038 1.5 60.5 1.5C60.3962 1.5 60.2947 1.53092 60.2086 1.58881C60.1224 1.6467 60.0555 1.72893 60.0162 1.82504L58.4775 5.55004L54.4831 5.87504C54.3796 5.88413 54.281 5.92352 54.1998 5.98829C54.1185 6.05307 54.0581 6.14035 54.0262 6.23924C53.9943 6.33813 53.9922 6.44424 54.0202 6.54431C54.0482 6.64439 54.1051 6.73398 54.1837 6.80191L57.2275 9.42691L56.2975 13.3482C56.2729 13.449 56.2788 13.5549 56.3143 13.6524C56.3499 13.7499 56.4136 13.8347 56.4973 13.8961C56.5811 13.9574 56.6811 13.9925 56.7848 13.997C56.8885 14.0015 56.9913 13.9752 57.08 13.9213L60.5 11.8182Z" fill="#E0912F" stroke="#E0912F" stroke-linecap="round" stroke-linejoin="round"/>
</g>
<g clip-path="url(#clip2_0_459)">
<path d="M77.5 11.8182L80.92 13.9213C81.0087 13.9752 81.1114 14.0015 81.2151 13.997C81.3188 13.9925 81.4189 13.9574 81.5026 13.8961C81.5864 13.8347 81.6501 13.7499 81.6856 13.6524C81.7212 13.5549 81.7271 13.449 81.7025 13.3482L80.7725 9.42379L83.8162 6.79879C83.8938 6.73064 83.9498 6.64127 83.9772 6.54169C84.0046 6.44211 84.0022 6.33669 83.9704 6.23845C83.9385 6.14021 83.8786 6.05344 83.798 5.98885C83.7174 5.92427 83.6197 5.8847 83.5169 5.87504L79.5225 5.55004L77.9837 1.82504C77.9445 1.72893 77.8775 1.6467 77.7914 1.58881C77.7052 1.53092 77.6038 1.5 77.5 1.5C77.3962 1.5 77.2947 1.53092 77.2086 1.58881C77.1224 1.6467 77.0555 1.72893 77.0162 1.82504L75.4775 5.55004L71.4831 5.87504C71.3796 5.88413 71.281 5.92352 71.1998 5.98829C71.1185 6.05307 71.0581 6.14035 71.0262 6.23924C70.9943 6.33813 70.9922 6.44424 71.0202 6.54431C71.0482 6.64439 71.1051 6.73398 71.1837 6.80191L74.2275 9.42691L73.2975 13.3482C73.2729 13.449 73.2788 13.5549 73.3143 13.6524C73.3499 13.7499 73.4136 13.8347 73.4973 13.8961C73.5811 13.9574 73.6811 13.9925 73.7848 13.997C73.8885 14.0015 73.9913 13.9752 74.08 13.9213L77.5 11.8182Z" fill="#E0912F" stroke="#E0912F" stroke-linecap="round" stroke-linejoin="round"/>
</g>
<g clip-path="url(#clip3_0_459)">
<path d="M8.49999 11.8182L11.92 13.9213C12.0087 13.9752 12.1114 14.0015 12.2151 13.997C12.3188 13.9925 12.4189 13.9574 12.5026 13.8961C12.5864 13.8347 12.6501 13.7499 12.6856 13.6524C12.7212 13.5549 12.7271 13.449 12.7025 13.3482L11.7725 9.42379L14.8162 6.79879C14.8938 6.73064 14.9498 6.64127 14.9772 6.54169C15.0046 6.44211 15.0022 6.33669 14.9704 6.23845C14.9385 6.14021 14.8786 6.05344 14.798 5.98885C14.7174 5.92427 14.6197 5.8847 14.5169 5.87504L10.5225 5.55004L8.98374 1.82504C8.94451 1.72893 8.87755 1.6467 8.79139 1.58881C8.70523 1.53092 8.60379 1.5 8.49999 1.5C8.39619 1.5 8.29474 1.53092 8.20858 1.58881C8.12243 1.6467 8.05547 1.72893 8.01624 1.82504L6.47749 5.55004L2.48311 5.87504C2.37959 5.88413 2.28104 5.92352 2.19978 5.98829C2.11852 6.05307 2.05815 6.14035 2.02621 6.23924C1.99426 6.33813 1.99217 6.44424 2.02019 6.54431C2.04821 6.64439 2.10509 6.73398 2.18374 6.80191L5.22749 9.42691L4.29749 13.3482C4.2729 13.449 4.27876 13.5549 4.31433 13.6524C4.34991 13.7499 4.41359 13.8347 4.49733 13.8961C4.58108 13.9574 4.68113 13.9925 4.78483 13.997C4.88854 14.0015 4.99125 13.9752 5.07999 13.9213L8.49999 11.8182Z" fill="#E0912F" stroke="#E0912F" stroke-linecap="round" stroke-linejoin="round"/>
</g>
<g clip-path="url(#clip4_0_459)">
<path d="M43.5 11.8182L46.92 13.9213C47.0087 13.9752 47.1114 14.0015 47.2151 13.997C47.3188 13.9925 47.4189 13.9574 47.5026 13.8961C47.5864 13.8347 47.6501 13.7499 47.6856 13.6524C47.7212 13.5549 47.7271 13.449 47.7025 13.3482L46.7725 9.42379L49.8162 6.79879C49.8938 6.73064 49.9498 6.64127 49.9772 6.54169C50.0046 6.44211 50.0022 6.33669 49.9704 6.23845C49.9385 6.14021 49.8786 6.05344 49.798 5.98885C49.7174 5.92427 49.6197 5.8847 49.5169 5.87504L45.5225 5.55004L43.9837 1.82504C43.9445 1.72893 43.8775 1.6467 43.7914 1.58881C43.7052 1.53092 43.6038 1.5 43.5 1.5C43.3962 1.5 43.2947 1.53092 43.2086 1.58881C43.1224 1.6467 43.0555 1.72893 43.0162 1.82504L41.4775 5.55004L37.4831 5.87504C37.3796 5.88413 37.281 5.92352 37.1998 5.98829C37.1185 6.05307 37.0581 6.14035 37.0262 6.23924C36.9943 6.33813 36.9922 6.44424 37.0202 6.54431C37.0482 6.64439 37.1051 6.73398 37.1837 6.80191L40.2275 9.42691L39.2975 13.3482C39.2729 13.449 39.2788 13.5549 39.3143 13.6524C39.3499 13.7499 39.4136 13.8347 39.4973 13.8961C39.5811 13.9574 39.6811 13.9925 39.7848 13.997C39.8885 14.0015 39.9913 13.9752 40.08 13.9213L43.5 11.8182Z" fill="#E0912F" stroke="#E0912F" stroke-linecap="round" stroke-linejoin="round"/>
</g>
<defs>
<clipPath id="clip0_0_459">
<rect width="16" height="16" fill="white" transform="translate(17.5)"/>
</clipPath>
<clipPath id="clip1_0_459">
<rect width="16" height="16" fill="white" transform="translate(52.5)"/>
</clipPath>
<clipPath id="clip2_0_459">
<rect width="16" height="16" fill="white" transform="translate(69.5)"/>
</clipPath>
<clipPath id="clip3_0_459">
<rect width="16" height="16" fill="white" transform="translate(0.5)"/>
</clipPath>
<clipPath id="clip4_0_459">
<rect width="16" height="16" fill="white" transform="translate(35.5)"/>
</clipPath>
</defs>
</svg>
