<svg width="22" height="22" viewBox="0 0 22 22" fill="none" xmlns="http://www.w3.org/2000/svg">
<path d="M1.5 11C1.5 6.522 1.5 4.282 2.891 2.891C4.282 1.5 6.521 1.5 11 1.5C15.478 1.5 17.718 1.5 19.109 2.891C20.5 4.282 20.5 6.521 20.5 11C20.5 15.478 20.5 17.718 19.109 19.109C17.718 20.5 15.479 20.5 11 20.5C6.522 20.5 4.282 20.5 2.891 19.109C1.5 17.718 1.5 15.479 1.5 11Z" stroke="white" stroke-width="1.5" stroke-linecap="round" stroke-linejoin="round"/>
<path d="M9.53601 10.008C8.71601 9.89196 6.84601 10.083 5.93001 11.778C5.01401 13.473 5.93701 15.237 6.51401 15.907C7.08301 16.534 8.89201 17.721 10.811 16.562C11.287 16.275 11.88 16.06 12.552 13.815L12.474 4.98096C12.344 5.95396 13.419 8.23596 16.478 8.50596" stroke="white" stroke-width="1.5" stroke-linecap="round" stroke-linejoin="round"/>
</svg>
